<?xml version="1.0" encoding="UTF-8"?>
<svg id="a" data-name="Camada 1" xmlns="http://www.w3.org/2000/svg" xmlns:xlink="http://www.w3.org/1999/xlink" viewBox="0 0 1920 1920">
  <defs>
    <style>
      .k {
        clip-path: url(#g);
        fill: url(#f);
      }

      .k, .l, .m, .n, .o {
        stroke: #000;
        stroke-miterlimit: 10;
        stroke-width: 9px;
      }

      .p {
        fill: url(#c);
      }

      .q {
        fill: url(#d);
      }

      .l, .r {
        fill: url(#b);
      }

      .m {
        fill: url(#j);
      }

      .s {
        clip-path: url(#e);
      }

      .n {
        fill: none;
      }

      .o {
        clip-path: url(#i);
        fill: url(#h);
      }
    </style>
    <linearGradient id="b" data-name="Gradiente sem nome 299" x1="43.51" y1="960" x2="386.81" y2="960" gradientUnits="userSpaceOnUse">
      <stop offset="0" stop-color="#1fcaff"/>
      <stop offset=".38" stop-color="#1382aa"/>
      <stop offset="1" stop-color="#000818"/>
    </linearGradient>
    <linearGradient id="c" data-name="Gradiente sem nome 299" x1="416.31" y1="960" x2="1503.69" y2="960" xlink:href="#b"/>
    <linearGradient id="d" data-name="Gradiente sem nome 299" x1="1533.19" x2="1876.49" xlink:href="#b"/>
    <linearGradient id="f" data-name="Gradiente sem nome 299" x1="1533.19" x2="1876.49" xlink:href="#b"/>
    <linearGradient id="h" data-name="Gradiente sem nome 299" x1="416.31" y1="960" x2="1503.69" y2="960" xlink:href="#b"/>
    <clipPath id="i">
      <polygon class="l" points="43.51 1215.89 386.81 1643.63 386.81 1200.59 180.59 961.26 386.81 724.5 386.81 276.37 43.51 701.56 43.51 1215.89"/>
    </clipPath>
    <clipPath id="g">
      <polygon class="o" points="1107.98 1172.44 1016.77 555.32 1048.13 355.69 914.3 355.69 911.24 355.56 876.42 355.03 819.88 714.59 617.69 714.59 617.69 353.04 416.31 353.04 416.31 1364.68 617.69 1364.68 617.69 905.38 791.86 905.38 692.91 1558.18 776.15 1558.18 859.25 1558.18 936.22 1068.13 1020.83 1566.96 1202.2 1566.96 1318.78 837.97 1318.78 1566.96 1503.69 1566.96 1503.69 555.32 1192.78 555.32 1107.98 1172.44"/>
    </clipPath>
    <clipPath id="e">
      <polygon class="k" points="1533.19 276.37 1533.19 724.5 1739.41 961.26 1533.19 1200.59 1533.19 1643.63 1876.49 1215.89 1876.49 701.56 1533.19 276.37"/>
    </clipPath>
    <linearGradient id="j" data-name="Gradiente sem nome 299" x1="-55.87" y1="920.7" x2="1949.82" y2="920.7" xlink:href="#b"/>
  </defs>
  <polygon class="r" points="43.51 1215.89 386.81 1643.63 386.81 1200.59 180.59 961.26 386.81 724.5 386.81 276.37 43.51 701.56 43.51 1215.89"/>
  <polygon class="p" points="1107.98 1172.44 1016.77 555.32 1048.13 355.69 914.3 355.69 911.24 355.56 876.42 355.03 819.88 714.59 617.69 714.59 617.69 353.04 416.31 353.04 416.31 1364.68 617.69 1364.68 617.69 905.38 791.86 905.38 692.91 1558.18 776.15 1558.18 859.25 1558.18 936.22 1068.13 1020.83 1566.96 1202.2 1566.96 1318.78 837.97 1318.78 1566.96 1503.69 1566.96 1503.69 555.32 1192.78 555.32 1107.98 1172.44"/>
  <polygon class="q" points="1533.19 276.37 1533.19 724.5 1739.41 961.26 1533.19 1200.59 1533.19 1643.63 1876.49 1215.89 1876.49 701.56 1533.19 276.37"/>
  <g class="s">
    <rect class="m" x="-55.87" y="142.95" width="2005.69" height="1555.5"/>
  </g>
  <polygon class="n" points="43.51 1215.89 386.81 1643.63 386.81 1200.59 180.59 961.26 386.81 724.5 386.81 276.37 43.51 701.56 43.51 1215.89"/>
  <polygon class="n" points="1107.98 1172.44 1016.77 555.32 1048.13 355.69 914.3 355.69 911.24 355.56 876.42 355.03 819.88 714.59 617.69 714.59 617.69 353.04 416.31 353.04 416.31 1364.68 617.69 1364.68 617.69 905.38 791.86 905.38 692.91 1558.18 776.15 1558.18 859.25 1558.18 936.22 1068.13 1020.83 1566.96 1202.2 1566.96 1318.78 837.97 1318.78 1566.96 1503.69 1566.96 1503.69 555.32 1192.78 555.32 1107.98 1172.44"/>
  <polygon class="n" points="1533.19 276.37 1533.19 724.5 1739.41 961.26 1533.19 1200.59 1533.19 1643.63 1876.49 1215.89 1876.49 701.56 1533.19 276.37"/>
</svg>
